<svg xmlns="http://www.w3.org/2000/svg" viewBox="0 0 239.66 239.66"><g style="isolation:isolate"><g style="isolation:isolate"><path d="M74.82,184.48H85.47v2.14H74.82ZM85,201.24c0,.92-.13,1.45-.73,1.77a4.71,4.71,0,0,1-2.36.35,8,8,0,0,0-.53-1.91c.55,0,1.15,0,1.33,0s.25-.06.25-.26v-6.53H77.11v9H75.18V192.82H85Zm-.58-9.17H75.89v-4.65h8.57Zm-5.91,5.72a10.38,10.38,0,0,0-1-2.27l1.31-.48a9.45,9.45,0,0,1,1.07,2.21Zm2.4,1.56V203h-1.8v-3.6H77.6v-1.54H80a25.26,25.26,0,0,0,1.16-2.89l1.54.62c-.41.73-.79,1.56-1.18,2.27h1v1.54Zm1.24-10.24H78v1.24h4.18Zm10.65,14.57c-.07-.47-.15-1.05-.28-1.67-2.32.43-4.65.85-6.49,1.22l-.54-2.32c.9-.1,2-.25,3.17-.45v-3.92H85.83v-8.8H88.7V184h2.21v3.73h2.91v8.8H90.91v3.58l1.18-.19c-.2-.73-.39-1.5-.6-2.19l1.71-.34a41.73,41.73,0,0,1,1.48,5.81Zm-5.23-9.32h1.31V189.9H87.61Zm4.33-4.46H90.69v4.46h1.25Z" style="fill:#595959"/></g><g style="isolation:isolate"><path d="M118.81,189.82a29.09,29.09,0,0,1-1.85,8.07,9.18,9.18,0,0,0,3.39,3.8,6.78,6.78,0,0,0-1.44,1.73,10.29,10.29,0,0,1-3.1-3.38,12.3,12.3,0,0,1-3.84,3.79,8.29,8.29,0,0,0-1-1.54l-1.37,1.17a22.29,22.29,0,0,0-2.77-1.47,22.22,22.22,0,0,1-6,1.58,6.94,6.94,0,0,0-.93-1.63,25.07,25.07,0,0,0,4.52-1,29.27,29.27,0,0,0-2.84-1,11.42,11.42,0,0,0,.94-1.24l-1.93.11-.19-1.69,3.3-.15c.27-.43.53-.9.75-1.33h-3.15v-3.88h3.83v-.6h-3.26V189H100.3v-1.8h1.62V185h3.26v-1.31h1.93V185h3.45v2.16H112V189h-1.46v2.25h-3.45v.6H111v1.56c1.41-2.29,2.12-5.93,2.51-9.62l2.14.28c-.15,1.2-.32,2.4-.56,3.56h5.08v2.23Zm-15.39,4.32h1.76v-.79h-1.76Zm.6-7.54v.69h1.16v-.69Zm1.16,3v-.77H104v.77Zm-.58,9.6c.71.24,1.44.49,2.15.77a3.77,3.77,0,0,0,1.5-1.52l-3.26.17Zm5.83-.88a4.51,4.51,0,0,1-1.63,2.53c.77.34,1.46.69,2.06,1a9.48,9.48,0,0,0,3.81-4.1,30.24,30.24,0,0,1-1.26-4.26,10.91,10.91,0,0,1-.82,1.56,13.51,13.51,0,0,0-1.56-1.56v2.21h-4.28l-.69,1.24,2.51-.13v-.75h2v.67l.68-.05,0,1.61Zm-3.32-11.72v.69h1.24v-.69Zm1.24,3v-.77h-1.24v.77Zm-1.24,3.75v.79h1.71v-.79Zm7.54-3.53a36.38,36.38,0,0,0,1.09,5.14,28.15,28.15,0,0,0,.92-5.14Z" style="fill:#595959"/></g><g style="isolation:isolate"><path d="M141.89,195.84a12.56,12.56,0,0,0,4.17,2.48,9.13,9.13,0,0,0-1.69,2A14.21,14.21,0,0,1,141,198v1.59h-3.9V201h7v2.1h-16.3V201h6.73v-1.39h-3.8V198.3a14.92,14.92,0,0,1-3.4,2.19,9.54,9.54,0,0,0-1.63-2,13.12,13.12,0,0,0,4.33-2.7h-4.14v-2.08H130v-6.39h-3v-2.05h3v-1.61h2.55v1.61h6.71v-1.61h2.61v1.61h2.94v2.05h-2.94v6.39h4v2.08Zm-1.35,1.77a12.85,12.85,0,0,1-1.55-1.77h-6a12.61,12.61,0,0,1-1.52,1.77h3.09v-1.32h2.59v1.32Zm-8-10.24v.95h6.71v-.95Zm0,3.65h6.71v-1h-6.71Zm0,2.74h6.71v-1h-6.71Z" style="fill:#595959"/></g><g style="isolation:isolate"><path d="M158.28,194.94l.58,2.27c-2.23,1.09-4.63,2.25-6.58,3.13l-1-2.57c.8-.28,1.74-.63,2.79-1.05V191h-2.31v-2.42H154V184h2.36v4.65h2V191h-2v4.69Zm9.56,6.08c1.15,0,1.37-.49,1.56-2.68a6.59,6.59,0,0,0,2.23.93c-.34,3-1.07,4-3.58,4h-4.56c-2.9,0-3.73-.79-3.73-3.72V194l-1.16.49-.94-2.25,2.1-.9v-5.63h2.44v4.58l1.78-.75v-5.91h2.38v4.88l2.33-1,1.93.62-.08.38a70.1,70.1,0,0,1-.95,9.45l-2.08-.58c.24-1.73.41-4.45.5-7l-1.65.73v7.56H164v-6.54l-1.78.78v6.62c0,1.24.19,1.43,1.5,1.43Z" style="fill:#595959"/></g></g><path d="M101.71,113.05c.51,1.19,1.26,3,2,5.34,1.81,5.6,1.1,6.18,2.62,9.22a16.2,16.2,0,0,0,6.62,7.12l.08,0a15.78,15.78,0,0,0,6.24,1.62c4.69.39,9,.46,9,.46s-6.79-10.85-16.41-18C108.56,116.35,106.56,114.31,101.71,113.05Z" style="fill:#d9d9d9"/><path d="M101.71,113.05s14.93-3.08,23.43,3.87,3.15,19.93,3.15,19.93S116.54,118.58,101.71,113.05Z" style="fill:#d9d9d9"/><path d="M163.76,141.42l-27.08,16.27a1.63,1.63,0,0,1-2.25-.56l-3.17-5.28a1.61,1.61,0,0,1,.55-2.22l28.49-17.11a1.61,1.61,0,0,1,2.22.55l2.64.87C165.17,136.67,165.29,140.5,163.76,141.42Z" style="fill:#d9d9d9"/><circle cx="157.05" cy="56.51" r="7.83" style="fill:#d9d9d9"/><path d="M134.75,103.95h51.34a4.51,4.51,0,0,1,4.51,4.51v.46a4.45,4.45,0,0,1-4.45,4.45h-51.4a4.45,4.45,0,0,1-4.45-4.45v-.53A4.45,4.45,0,0,1,134.75,103.95Z" transform="translate(269.11 -51.8) rotate(90)" style="fill:#d9d9d9"/><path d="M114.93,46.08h39a4.23,4.23,0,0,1,4.23,4.23v1.11a4.2,4.2,0,0,1-4.2,4.2H115.5a4.76,4.76,0,0,1-4.76-4.76v-.57A4.2,4.2,0,0,1,114.93,46.08Z" transform="translate(14.36 -28.15) rotate(12.62)" style="fill:#d9d9d9"/><path d="M120.54,47.84v25A3.59,3.59,0,0,1,117,76.48h-2.26a3.57,3.57,0,0,1-3.57-3.57V45.55A4,4,0,0,1,114.68,42h0A5.86,5.86,0,0,1,120.54,47.84Z" style="fill:#d9d9d9"/><path d="M114.91,72.42H161.3a4.19,4.19,0,0,1,4.19,4.19v1.17a4.16,4.16,0,0,1-4.16,4.16h-45.8a4.79,4.79,0,0,1-4.79-4.79v-.58a4.16,4.16,0,0,1,4.16-4.16Z" transform="translate(20.2 -28.31) rotate(12.62)" style="fill:#d9d9d9"/><path d="M143.15,93.22,91,81.25A5.43,5.43,0,0,0,84,86.78V149.5a6.26,6.26,0,0,0,3,5l26.14,14a6.3,6.3,0,0,0,5.6-.13l26-15.58a6.31,6.31,0,0,0,2.76-4.86V98.75A6,6,0,0,0,143.15,93.22Zm-3.75,48.86a4.7,4.7,0,0,1-2.05,3.62L118,157.28a4.72,4.72,0,0,1-4.16.1L94.4,147a4.65,4.65,0,0,1-2.23-3.72V96.61a4,4,0,0,1,5.16-4.11l38.8,8.9a4.43,4.43,0,0,1,3.27,4.11Z" style="fill:#d9d9d9"/><path d="M98.41,107.53c.51,1.2,1.26,3,2,5.35,1.8,5.6,1.09,6.17,2.61,9.21a16.13,16.13,0,0,0,6.62,7.12l.09,0a15.66,15.66,0,0,0,6.24,1.61c4.68.39,9,.47,9,.47s-6.79-10.85-16.41-18C105.26,110.84,103.26,108.8,98.41,107.53Z" style="fill:#a3bb6d"/><path d="M98.41,107.53s14.93-3.08,23.43,3.88S125,131.34,125,131.34,113.24,113.07,98.41,107.53Z" style="fill:#84aa42"/><path d="M160.47,135.91l-27.08,16.27a1.65,1.65,0,0,1-2.26-.56L128,146.34a1.62,1.62,0,0,1,.55-2.22L157,127a1.62,1.62,0,0,1,2.22.56l2.64.86C161.87,131.16,162,135,160.47,135.91Z" style="fill:#494949"/><circle cx="153.76" cy="51" r="7.83" style="fill:#494949"/><path d="M131.46,98.43h51.34a4.51,4.51,0,0,1,4.51,4.51v.46a4.45,4.45,0,0,1-4.45,4.45h-51.4A4.45,4.45,0,0,1,127,103.4v-.53a4.45,4.45,0,0,1,4.45-4.45Z" transform="translate(260.3 -54.02) rotate(90)" style="fill:#494949"/><path d="M111.64,40.56h39a4.23,4.23,0,0,1,4.23,4.23v1.11a4.2,4.2,0,0,1-4.2,4.2H112.2a4.76,4.76,0,0,1-4.76-4.76v-.57A4.2,4.2,0,0,1,111.64,40.56Z" transform="translate(13.07 -27.56) rotate(12.62)" style="fill:#494949"/><path d="M117.24,42.32V67.37A3.59,3.59,0,0,1,113.65,71h-2.26a3.56,3.56,0,0,1-3.57-3.56V40a4,4,0,0,1,3.57-3.56h0A5.85,5.85,0,0,1,117.24,42.32Z" style="fill:#494949"/><path d="M111.61,66.91H158a4.19,4.19,0,0,1,4.19,4.19v1.17A4.16,4.16,0,0,1,158,76.44h-45.8a4.79,4.79,0,0,1-4.79-4.79v-.58a4.16,4.16,0,0,1,4.16-4.16Z" transform="translate(18.92 -27.72) rotate(12.62)" style="fill:#494949"/><path d="M139.85,87.71l-52.19-12a5.43,5.43,0,0,0-6.94,5.52V144a6.26,6.26,0,0,0,3,5l26.15,14a6.28,6.28,0,0,0,5.59-.13L141.5,147.3a6.33,6.33,0,0,0,2.75-4.87V93.23A6,6,0,0,0,139.85,87.71Zm-3.75,48.86a4.67,4.67,0,0,1-2,3.61l-19.36,11.59a4.71,4.71,0,0,1-4.16.09L91.1,141.43a4.63,4.63,0,0,1-2.22-3.71V91.1A4,4,0,0,1,94,87l38.8,8.9A4.42,4.42,0,0,1,136.1,100Z" style="fill:#494949"/></svg>