<svg xmlns="http://www.w3.org/2000/svg" viewBox="0 0 820 312"><g style="isolation:isolate"><g style="isolation:isolate"><path d="M154.69,211.8h10.13v2H154.69Zm9.72,15.94c0,.88-.12,1.39-.69,1.69a4.54,4.54,0,0,1-2.25.33A7.23,7.23,0,0,0,161,228c.53,0,1.1,0,1.27,0s.24-.07.24-.25V221.5h-5.6v8.57H155V219.73h9.38Zm-.55-8.72h-8.15v-4.43h8.15Zm-5.63,5.44a9.38,9.38,0,0,0-.94-2.16l1.25-.45a9.14,9.14,0,0,1,1,2.1Zm2.29,1.49v3.42H158.8V226h-1.46v-1.47h2.28a23.87,23.87,0,0,0,1.1-2.75l1.47.59c-.39.69-.76,1.49-1.12,2.16H162V226Zm1.18-9.75h-4v1.19h4Zm10.13,13.87c-.06-.45-.14-1-.27-1.59-2.2.4-4.42.81-6.17,1.16l-.51-2.2c.85-.11,1.89-.25,3-.43v-3.73h-2.74V214.9h2.74v-3.55H170v3.55h2.77v8.38H170v3.4l1.12-.18c-.19-.69-.37-1.43-.58-2.08l1.64-.33a38.32,38.32,0,0,1,1.4,5.53Zm-5-8.87h1.24V217h-1.24ZM171,217h-1.18v4.24H171Z" style="fill:#595959"/></g><g style="isolation:isolate"><path d="M196.54,216.88a28.16,28.16,0,0,1-1.75,7.68,8.6,8.6,0,0,0,3.22,3.61,6.48,6.48,0,0,0-1.37,1.65,9.63,9.63,0,0,1-2.95-3.22,11.65,11.65,0,0,1-3.65,3.61,8.11,8.11,0,0,0-.92-1.47l-1.31,1.12a20.15,20.15,0,0,0-2.63-1.4,21.07,21.07,0,0,1-5.7,1.5,6.8,6.8,0,0,0-.88-1.55,24.49,24.49,0,0,0,4.3-.91,26.59,26.59,0,0,0-2.71-.94,10.08,10.08,0,0,0,.9-1.18l-1.84.1-.18-1.61,3.14-.14a13.48,13.48,0,0,0,.71-1.27h-3v-3.69h3.65v-.57h-3.09v-2.14h-1.55v-1.71h1.55v-2.06h3.09v-1.24h1.84v1.24h3.28v2.06h1.39v1.71h-1.39v2.14h-3.28v.57h3.73v1.49c1.35-2.18,2-5.65,2.38-9.15l2,.26c-.14,1.14-.3,2.29-.53,3.39h4.83v2.12ZM181.9,221h1.67v-.75H181.9Zm.57-7.17v.65h1.1v-.65Zm1.1,2.85v-.73h-1.1v.73Zm-.55,9.14c.68.22,1.37.46,2,.73a3.49,3.49,0,0,0,1.43-1.45l-3.1.17Zm5.55-.84a4.39,4.39,0,0,1-1.55,2.41c.73.32,1.39.65,2,.93a9,9,0,0,0,3.63-3.89,29.1,29.1,0,0,1-1.21-4.06,10.43,10.43,0,0,1-.77,1.49,13.09,13.09,0,0,0-1.49-1.49v2.1h-4.08c-.2.39-.43.78-.65,1.19l2.38-.13v-.71h1.9v.63l.65,0,0,1.53Zm-3.16-11.15v.65h1.18v-.65Zm1.18,2.85v-.73h-1.18v.73Zm-1.18,3.57V221H187v-.75Zm7.17-3.36a36,36,0,0,0,1,4.89,26.56,26.56,0,0,0,.88-4.89Z" style="fill:#595959"/></g><g style="isolation:isolate"><path d="M218.5,222.61a12.17,12.17,0,0,0,4,2.36,8.3,8.3,0,0,0-1.61,1.88,13.71,13.71,0,0,1-3.2-2.15v1.51H214v1.33h6.65v2H205.08v-2h6.41v-1.33h-3.61V225a14,14,0,0,1-3.24,2.08,9.23,9.23,0,0,0-1.55-1.86,12.37,12.37,0,0,0,4.12-2.56h-3.94v-2h3.89v-6.08h-2.81v-2h2.81v-1.53h2.43v1.53H216v-1.53h2.49v1.53h2.79v2h-2.79v6.08h3.77v2Zm-1.29,1.69a12.11,12.11,0,0,1-1.46-1.69H210a12.72,12.72,0,0,1-1.45,1.69h2.94V223H214v1.27Zm-7.62-9.75v.9H216v-.9Zm0,3.47H216v-.9h-6.38Zm0,2.61H216v-.92h-6.38Z" style="fill:#595959"/></g><g style="isolation:isolate"><path d="M234.1,221.75l.55,2.16c-2.12,1-4.41,2.14-6.26,3l-1-2.45c.75-.27,1.65-.59,2.65-1V218h-2.2v-2.31h2.2v-4.42h2.24v4.42h1.9V218h-1.9v4.46Zm9.09,5.79c1.1,0,1.3-.47,1.49-2.55a6.34,6.34,0,0,0,2.12.88c-.33,2.85-1,3.83-3.41,3.83h-4.34c-2.75,0-3.55-.76-3.55-3.55v-5.26l-1.1.47-.9-2.14,2-.86V213h2.33v4.37l1.69-.72V211h2.26v4.64l2.22-.95,1.84.59-.08.36a68.37,68.37,0,0,1-.9,9l-2-.55c.23-1.65.39-4.24.47-6.64l-1.57.69v7.2h-2.26v-6.22l-1.69.73v6.3c0,1.19.18,1.37,1.42,1.37Z" style="fill:#595959"/></g></g><path d="M150.34,245.77H154c3.89,0,6.46,1.86,6.46,6.3s-2.57,6.43-6.28,6.43h-3.84ZM153.82,256c2.05,0,3.51-.94,3.51-4s-1.46-3.87-3.51-3.87h-.41V256Z" style="fill:#595959"/><path d="M162.82,245.77h3.67c3.88,0,6.45,1.86,6.45,6.3s-2.57,6.43-6.28,6.43h-3.84ZM166.3,256c2,0,3.51-.94,3.51-4s-1.46-3.87-3.51-3.87h-.41V256Z" style="fill:#595959"/><path d="M178.42,256.91l1.73-2.1a5.16,5.16,0,0,0,3.1,1.3c1.13,0,1.66-.43,1.66-1.12s-.7-1-1.8-1.43l-1.63-.69a3.73,3.73,0,0,1-2.58-3.49c0-2.14,1.92-3.85,4.62-3.85a6,6,0,0,1,4.15,1.67l-1.53,1.92a4.17,4.17,0,0,0-2.62-1c-.94,0-1.52.37-1.52,1.06s.8,1,1.93,1.42l1.59.63a3.53,3.53,0,0,1,2.52,3.49c0,2.13-1.78,4-4.86,4A7.11,7.11,0,0,1,178.42,256.91Z" style="fill:#595959"/><path d="M189.75,254.89v-3.75h-1.31v-2.26l1.49-.12.34-2.57h2.53v2.57h2.3v2.38h-2.3v3.72c0,1.08.52,1.5,1.23,1.5a3.35,3.35,0,0,0,.89-.17l.48,2.19a6.92,6.92,0,0,1-2.2.36C190.75,258.74,189.75,257.2,189.75,254.89Z" style="fill:#595959"/><path d="M196.06,253.64a4.78,4.78,0,1,1,4.77,5.1A4.8,4.8,0,0,1,196.06,253.64Zm6.42,0c0-1.62-.52-2.65-1.65-2.65s-1.66,1-1.66,2.65.52,2.64,1.66,2.64S202.48,255.25,202.48,253.64Z" style="fill:#595959"/><path d="M207.51,248.76H210l.21,1.7h.07a3.33,3.33,0,0,1,2.77-1.94,2.72,2.72,0,0,1,1.18.21l-.51,2.62a3.81,3.81,0,0,0-1.06-.16,2.39,2.39,0,0,0-2.11,1.75v5.56h-3Z" style="fill:#595959"/><path d="M215.32,262.06l.55-2.31a2.9,2.9,0,0,0,.65.12,1.55,1.55,0,0,0,1.62-1.16l.14-.5-3.73-9.45h3.06l1.3,4c.29.89.5,1.8.76,2.76h.08c.19-.93.41-1.83.64-2.76l1.13-4h2.89l-3.34,9.76c-1,2.5-2,3.73-4.31,3.73A4.69,4.69,0,0,1,215.32,262.06Z" style="fill:#595959"/><path d="M230,245.77h3.07v4.84h4.19v-4.84h3V258.5h-3v-5.24h-4.19v5.24H230Z" style="fill:#595959"/><path d="M243,254.79v-6H246v5.65c0,1.35.36,1.73,1.13,1.73a1.83,1.83,0,0,0,1.62-1v-6.39h3.05v9.74h-2.48l-.22-1.33H249a3.78,3.78,0,0,1-3.05,1.57C243.86,258.74,243,257.22,243,254.79Z" style="fill:#595959"/><path d="M256.94,257.46h-.07l-.24,1h-2.38V244.82h3v3.29l-.07,1.46a3.86,3.86,0,0,1,2.52-1c2.33,0,3.82,1.95,3.82,4.93,0,3.38-2,5.29-4.09,5.29A3.43,3.43,0,0,1,256.94,257.46Zm3.48-3.94c0-1.71-.5-2.52-1.58-2.52a2.09,2.09,0,0,0-1.56.83v3.85a2.13,2.13,0,0,0,1.46.56C259.66,256.24,260.42,255.47,260.42,253.52Z" style="fill:#595959"/><path d="M326.55,153.09v2.71H313.83a27.32,27.32,0,0,1-2.78,4.69V172h-2.88v-8.27a16.93,16.93,0,0,1-2.09,1.66,20.08,20.08,0,0,0-1.4-2.73,18,18,0,0,0,5.92-6.85h-5.16v-2.71h6.42c.4-1.11.76-2.21,1.05-3.3l3,.71c-.26.88-.57,1.74-.91,2.59Zm-5.71,15.72h5.64v2.61H312.24v-2.61H318v-5.42h-4.82v-2.62H318v-4h2.85v4h4.71v2.62h-4.71Z" style="fill:#595959"/><path d="M351.63,156.61a32.08,32.08,0,0,1-2.05,9,10.1,10.1,0,0,0,3.76,4.21,7.53,7.53,0,0,0-1.6,1.93A11.33,11.33,0,0,1,348.3,168a13.49,13.49,0,0,1-4.26,4.21,8.44,8.44,0,0,0-1.07-1.71l-1.52,1.3a26.34,26.34,0,0,0-3.07-1.64,24.29,24.29,0,0,1-6.65,1.76,7.81,7.81,0,0,0-1-1.8,29.21,29.21,0,0,0,5-1.07c-1.07-.43-2.16-.81-3.16-1.1a12.84,12.84,0,0,0,1.05-1.37l-2.14.11-.22-1.87,3.66-.17a15.86,15.86,0,0,0,.84-1.48h-3.5v-4.3h4.26v-.66h-3.62v-2.5h-1.81v-2h1.81v-2.4h3.62v-1.45h2.14v1.45h3.82v2.4h1.62v2h-1.62v2.5h-3.82v.66H343v1.74c1.56-2.55,2.35-6.59,2.78-10.68l2.37.31c-.16,1.33-.35,2.67-.61,3.95h5.63v2.47Zm-17.07,4.8h1.95v-.88h-1.95Zm.66-8.36v.76h1.29v-.76Zm1.29,3.32v-.85h-1.29v.85ZM335.86,167c.79.26,1.6.55,2.38.86a4.17,4.17,0,0,0,1.67-1.69l-3.62.19Zm6.47-1a5,5,0,0,1-1.81,2.8c.86.38,1.62.76,2.29,1.1a10.58,10.58,0,0,0,4.23-4.54,33.44,33.44,0,0,1-1.41-4.73,12.25,12.25,0,0,1-.9,1.73,14.12,14.12,0,0,0-1.73-1.73v2.44h-4.76c-.24.46-.5.91-.76,1.38l2.78-.14v-.83h2.21v.74l.76-.05,0,1.78Zm-3.68-13v.76H340v-.76Zm1.37,3.32v-.85h-1.37v.85Zm-1.37,4.16v.88h1.9v-.88Zm8.36-3.92a39.35,39.35,0,0,0,1.22,5.71,32.84,32.84,0,0,0,1-5.71Z" style="fill:#595959"/><path d="M365.22,150.74a38.45,38.45,0,0,1-2.21,4.8V172h-2.86V160c-.5.62-1,1.21-1.49,1.76a18.42,18.42,0,0,0-1.53-2.95,25.42,25.42,0,0,0,5.42-8.89Zm13.83,17.62v2.73h-14.9v-2.73h8.27a80.68,80.68,0,0,0,1.95-11.13l2.95.45c-.6,3.57-1.48,7.7-2.31,10.68Zm-8.48-14.55a24.3,24.3,0,0,0-1.05-3.66l2.69-.67a33.26,33.26,0,0,1,1.21,3.61l-2.5.72h7.32v2.73H365v-2.73Zm-2.76,13.88a95.11,95.11,0,0,0-1.4-9.82l2.56-.57a88.7,88.7,0,0,1,1.62,9.6Z" style="fill:#595959"/><path d="M391.5,167.43h-4.82v2.09h-2.62V151.26h7.44Zm-4.82-13.65V158h2.19v-4.19Zm2.19,11.13v-4.47h-2.19v4.47Zm11.19-10.08v2.26h4.71v2.44H403v1.86h2.29v2.45H403V169c0,1.36-.26,2.07-1.21,2.5a10.54,10.54,0,0,1-4,.47,10,10,0,0,0-.88-2.66c1.14,0,2.45,0,2.81,0s.5-.1.5-.43v-5.11H392v-2.45h8.32v-1.86h-7.59v-2.44h4.59v-2.26h-5.35v-2.47h5.35v-2.55h2.78v2.55h5.35v2.47Zm-4.82,9.34a30.8,30.8,0,0,1,2.85,3.8l-2.47,1.45a33.86,33.86,0,0,0-2.74-4Z" style="fill:#595959"/><path d="M418.15,150.88a39.1,39.1,0,0,1-2.21,4.38V172H413V159.49a22.82,22.82,0,0,1-2.47,2.66,18.66,18.66,0,0,0-1.57-2.88,24.91,24.91,0,0,0,6.49-9.27Zm6.51,8.61c.67,5.28,1.93,8.79,3.83,9,.55,0,.83-1.14,1-3.78a9.65,9.65,0,0,0,2.31,1.62c-.6,4.59-1.88,5.68-3.21,5.61-4-.38-5.9-4.85-6.75-12.1l-4.69.64-.4-2.73,4.8-.65c-.17-2.14-.31-4.47-.38-7h2.88c0,2.33.14,4.56.31,6.58l6.77-.88.41,2.67Zm4.26-4.21a20.16,20.16,0,0,0-3.26-4l2.12-1.31a21.35,21.35,0,0,1,3.42,3.83Z" style="fill:#595959"/><path d="M438,164.22c1.86-.6,2.93-1.62,3.07-2.88a.72.72,0,0,1-.26,0,2.11,2.11,0,0,1-2.26-2.12,2.16,2.16,0,0,1,2.33-2.14c1.69,0,2.57,1.26,2.57,3.26a6,6,0,0,1-4.69,5.75Z" style="fill:#595959"/><path d="M470.89,161.08a23.39,23.39,0,0,1-3.95,5.21c.65,1.83,1.38,2.92,2.1,2.92.5,0,.78-1.14.9-4a7.22,7.22,0,0,0,2.33,1.62c-.45,4.16-1.33,5.21-3.5,5.21-1.73,0-3.06-1.43-4.08-3.76a24.58,24.58,0,0,1-4.4,2.9,12.75,12.75,0,0,0-1.88-2.28,24.32,24.32,0,0,0,5.3-3.35,43.79,43.79,0,0,1-1.21-6.37h-4.83v2.71c1.21-.22,2.45-.46,3.66-.67l.22,2.57-3.88.78v4.07c0,1.54-.33,2.3-1.28,2.76a10.16,10.16,0,0,1-4.28.54,11.55,11.55,0,0,0-1-2.85c1.33.07,2.71.05,3.14,0s.57-.12.57-.5v-3.44c-1.52.31-3,.62-4.26.85l-.68-2.85c1.35-.21,3.06-.48,4.94-.81v-3.18h-4.49v-2.69h4.49v-2.71c-1.28.21-2.59.38-3.8.52a10.71,10.71,0,0,0-.81-2.37,62,62,0,0,0,9.44-2l1.9,2.4c-1.19.36-2.5.67-3.88,1v3.21h4.57c-.19-2.14-.26-4.35-.29-6.51h3a60.42,60.42,0,0,0,.24,6.51h6.47v2.69h-6.18c.19,1.42.42,2.8.69,4a19.5,19.5,0,0,0,2.25-3.23Zm-1.74-5.23a18.74,18.74,0,0,0-3.37-3.92l2.14-1.45a20.35,20.35,0,0,1,3.52,3.78Z" style="fill:#595959"/><path d="M489.4,160.13h-4.09v11.81H482.7V151.12c-.48,1.35-1,2.76-1.64,4.11V172h-2.69V160.11a19.45,19.45,0,0,1-1.47,1.95,19.5,19.5,0,0,0-1.36-3.05,25.92,25.92,0,0,0,4.71-9.17l2.62.78-.15.45h6.68Zm-4.09-6.92v1.36h1.95v-1.36Zm1.95,4.78v-1.4h-1.95V158Zm10.27,10.72c0,1.57-.33,2.33-1.28,2.74s-2.47.52-4.71.52a10,10,0,0,0-.9-2.74,35,35,0,0,0,3.57.05c.45,0,.61-.14.61-.59v-8.56h-4.35v-9.06h7.06Zm-4.82-15.5v1.36h2.11v-1.36Zm2.11,4.78v-1.4h-2.11V158Z" style="fill:#595959"/><path d="M512.5,153.71l.84-.05,0,2.64-.81.07a20,20,0,0,1-2.25,9.39c1.18,1.07,2.25,2.1,3,2.9l-2.11,2.14a32,32,0,0,0-2.52-2.66,16.81,16.81,0,0,1-4.62,3.8,9.77,9.77,0,0,0-2-2.13,14.61,14.61,0,0,0,4.49-3.69c-1.31-1.19-2.66-2.38-3.83-3.42a57.57,57.57,0,0,0,1.36-5.78l-1.74.12-.28-2.81c.76,0,1.59-.07,2.49-.12.22-1.42.38-2.85.48-4.16l3,.17c-.15,1.21-.34,2.54-.55,3.85l2.28-.12v-1.11h2.78Zm-5.54,3c-.35,1.83-.76,3.64-1.14,5.21l2.19,1.88a16.88,16.88,0,0,0,1.69-7.28Zm16.19-4.49V171h-2.8v-1.38h-3.76v1.76h-2.68V152.26Zm-2.8,14.67v-12h-3.76v12Z" style="fill:#595959"/><path d="M536.08,150.64a39.56,39.56,0,0,1-2,4.35v16.95H531.3V159.51a23.19,23.19,0,0,1-1.66,2,18,18,0,0,0-1.52-2.95,24.55,24.55,0,0,0,5.3-8.77Zm14.43,3.93h-1.43v14.09c0,1.64-.35,2.41-1.37,2.86a14,14,0,0,1-4.83.52,10.59,10.59,0,0,0-1-2.9c1.54.07,3.21.07,3.68.07s.62-.14.62-.59V154.57H535.87v-2.71h14.64Zm-11.72,11.17v1.54h-2.64V157.13h7.92v8.61Zm0-6.16v3.71h2.64v-3.71Z" style="fill:#595959"/><path d="M573.88,169.19c.37,0,.47-.31.52-2.55a6.49,6.49,0,0,0,2.42,1.07c-.26,3.19-1,4.07-2.61,4.07h-1.6c-2.16,0-2.61-.86-2.61-3.31v-4.75h-1.09c-.36,3.76-1.22,6.7-5.09,8.44a8.12,8.12,0,0,0-1.4-2v.52h-4.64v1h-2.42v-8.2h7.06v6.37c2.94-1.29,3.49-3.43,3.7-6.16h-1.54v-6.44c-.26.26-.55.52-.81.76a17.16,17.16,0,0,0-2-2l.1-.07h-7.44v-2.24H558a20.64,20.64,0,0,0-1.14-3l2.38-.74a17.64,17.64,0,0,1,1.31,3.07l-1.83.66h4.18V155a16.23,16.23,0,0,0,3.38-4.92l2.61.81a24.19,24.19,0,0,1-3.3,5.23h8.15a44.79,44.79,0,0,0-3.9-4.95l2-1.33a39.22,39.22,0,0,1,5,6.3l-2.14,1.55c-.15-.26-.29-.52-.48-.81v6.8h-1.5v4.71c0,.69,0,.76.38.76Zm-11.77-10H555.4V157h6.71Zm-6.71,1h6.71v2.14H555.4Zm4.69,5.54h-2.31v2.67h2.31Zm7.15-4.49h4.19v-2.64h-4.19Z" style="fill:#595959"/><path d="M589.61,157.09a22.2,22.2,0,0,1-1.64,8.22,36.63,36.63,0,0,1,2.87,2.88L589,170.54a30.94,30.94,0,0,0-2.43-2.66,16,16,0,0,1-4,4.18,10.62,10.62,0,0,0-2-2,14.27,14.27,0,0,0,4-4.16c-1.21-1.12-2.47-2.26-3.54-3.21.38-1.43.79-3.23,1.12-5.18l-1.33.09-.26-2.68,2-.07c.23-1.72.42-3.43.52-5l2.8.12c-.14,1.5-.33,3.12-.59,4.76l1.71-.1v-1.5h2.64v1.36l1.24-.07V157Zm-4.76.31c-.28,1.56-.57,3.11-.88,4.46l1.83,1.55a19.5,19.5,0,0,0,1.17-6.16Zm17.93,4.87H598V169c0,1.45-.31,2.16-1.31,2.61a10.91,10.91,0,0,1-4.16.46,10.05,10.05,0,0,0-.95-2.69c1.19,0,2.57,0,2.95,0s.52-.09.52-.45v-6.63h-5v-2.69h5V157.3a18.41,18.41,0,0,0,2.9-3.47h-7v-2.57h8.82l.66-.14,1.91,1.38a29.19,29.19,0,0,1-4.38,5.3v1.78h4.76Z" style="fill:#595959"/><path d="M627.42,156.71a25.85,25.85,0,0,1-3,9,11.81,11.81,0,0,0,4.76,3.83,9.81,9.81,0,0,0-1.93,2.45,13.2,13.2,0,0,1-4.64-3.83,16.87,16.87,0,0,1-5.35,3.8,11.23,11.23,0,0,0-1.49-2.42h-5.49V171h-2.62V160.46h3.16V156.8h-4.13v-2.64h4.13v-4.35h2.83v4.35h3.9v2.64h-3.9v3.66h2.62a7.77,7.77,0,0,0-.67-.47c2.12-2.31,3.42-6.11,4.07-10.18l2.9.45a37.24,37.24,0,0,1-.91,3.78h7.25v2.67Zm-13.31,6.39h-3.8v3.83h3.8Zm2.69,5.9a12.54,12.54,0,0,0,4.28-3.26,27.14,27.14,0,0,1-2.05-5.37,11.83,11.83,0,0,1-1,1.49c-.26-.23-.71-.64-1.18-1Zm4-12.29a26.41,26.41,0,0,0,1.95,6.32,21.81,21.81,0,0,0,1.8-6.32Z" style="fill:#595959"/><path d="M655,165.41h-2.48v4.13H649.6v-1h-4.28v.74c0,1.4-.33,2-1.26,2.37a12.43,12.43,0,0,1-4.21.41,8.57,8.57,0,0,0-.93-2.24c1.14.05,2.55.05,2.93.05s.59-.17.59-.59v-.74h-7.23v-2h7.23v-1.12H633v-2.17h9.41v-1h-7v-1.9h7v-1H636v-4.7h6.44v-1h-8.87v-2.23h8.87v-1.55h2.88v1.55h9.08v2.23h-9.08v1h6.75v4.7h-6.75v1h7.15v2.92H655Zm-12.51-7.92v-1.14h-3.73v1.14Zm2.88-1.14v1.14h3.85v-1.14Zm0,6.89h4.28v-1h-4.28Zm4.28,2.17h-4.28v1.12h4.28Z" style="fill:#595959"/><path d="M669.11,156.94c0-1.42-1.14-2.23-3-2.23a4.92,4.92,0,0,0-3.8,1.88l-1.95-1.81a7.91,7.91,0,0,1,6.14-2.9c3.44,0,6,1.59,6,4.75,0,3.5-5.18,3.9-4.82,7.21h-3.07C664.07,160.11,669.11,159.25,669.11,156.94Zm-3,8.54a2.34,2.34,0,1,1-2.47,2.33A2.32,2.32,0,0,1,666.11,165.48Z" style="fill:#595959"/><path d="M181.38,141c.51,1.19,1.26,3,2,5.34,1.81,5.61,1.1,6.18,2.62,9.22a16.08,16.08,0,0,0,6.62,7.12l.09,0a15.87,15.87,0,0,0,6.24,1.62c4.68.38,9,.46,9,.46s-6.79-10.86-16.41-18C188.23,144.3,186.23,142.26,181.38,141Z" style="fill:#d9d9d9"/><path d="M181.38,141s14.93-3.08,23.43,3.87S208,164.81,208,164.81,196.21,146.53,181.38,141Z" style="fill:#d9d9d9"/><path d="M243.45,169.38l-27.09,16.27a1.64,1.64,0,0,1-2.26-.56l-3.17-5.28a1.62,1.62,0,0,1,.56-2.22L240,160.47a1.62,1.62,0,0,1,2.22.55l2.64.87C244.85,164.63,245,168.46,243.45,169.38Z" style="fill:#d9d9d9"/><circle cx="236.74" cy="84.45" r="7.83" style="fill:#d9d9d9"/><path d="M214.43,131.9h51.35a4.51,4.51,0,0,1,4.51,4.51v.46a4.45,4.45,0,0,1-4.45,4.45H214.43a4.45,4.45,0,0,1-4.45-4.45v-.53A4.45,4.45,0,0,1,214.43,131.9Z" transform="translate(376.74 -103.53) rotate(90)" style="fill:#d9d9d9"/><path d="M194.6,74h39a4.23,4.23,0,0,1,4.23,4.23v1.11a4.2,4.2,0,0,1-4.2,4.2H195.17a4.76,4.76,0,0,1-4.76-4.76v-.57a4.2,4.2,0,0,1,4.2-4.2Z" transform="translate(22.39 -44.88) rotate(12.62)" style="fill:#d9d9d9"/><path d="M200.21,75.77v25.06a3.59,3.59,0,0,1-3.59,3.59h-2.26a3.57,3.57,0,0,1-3.57-3.57V73.48a4,4,0,0,1,3.57-3.56h0A5.85,5.85,0,0,1,200.21,75.77Z" style="fill:#d9d9d9"/><path d="M194.58,100.37H241a4.19,4.19,0,0,1,4.19,4.19v1.18a4.16,4.16,0,0,1-4.16,4.16H195.21a4.79,4.79,0,0,1-4.79-4.79v-.58a4.16,4.16,0,0,1,4.16-4.16Z" transform="translate(28.23 -45.05) rotate(12.62)" style="fill:#d9d9d9"/><path d="M222.83,121.17l-52.21-12a5.43,5.43,0,0,0-6.93,5.53v62.74a6.25,6.25,0,0,0,3,5l26.16,14a6.31,6.31,0,0,0,5.59-.13l26.05-15.59a6.31,6.31,0,0,0,2.76-4.86V126.7A6,6,0,0,0,222.83,121.17ZM219.08,170a4.71,4.71,0,0,1-2.06,3.62l-19.36,11.58a4.68,4.68,0,0,1-4.16.1l-19.44-10.43a4.67,4.67,0,0,1-2.22-3.72V124.56a4,4,0,0,1,5.16-4.11l38.8,8.9a4.43,4.43,0,0,1,3.28,4.11Z" style="fill:#d9d9d9"/><path d="M178.08,135.48c.51,1.2,1.26,3,2,5.35,1.81,5.6,1.1,6.18,2.62,9.22a16.25,16.25,0,0,0,6.62,7.12l.09,0a15.7,15.7,0,0,0,6.24,1.62c4.68.39,9,.46,9,.46s-6.78-10.85-16.41-18C184.93,138.79,182.93,136.75,178.08,135.48Z" style="fill:#a3bb6d"/><path d="M178.08,135.48s14.93-3.08,23.44,3.88,3.14,19.93,3.14,19.93S192.91,141,178.08,135.48Z" style="fill:#84aa42"/><path d="M240.15,163.86l-27.09,16.28a1.65,1.65,0,0,1-2.26-.56l-3.17-5.28a1.62,1.62,0,0,1,.56-2.22L236.68,155a1.61,1.61,0,0,1,2.22.55l2.64.87C241.55,159.12,241.68,162.94,240.15,163.86Z" style="fill:#494949"/><circle cx="233.44" cy="78.93" r="7.83" style="fill:#494949"/><path d="M211.13,126.38h51.35a4.51,4.51,0,0,1,4.51,4.51v.46a4.45,4.45,0,0,1-4.45,4.45H211.13a4.45,4.45,0,0,1-4.45-4.45v-.53a4.45,4.45,0,0,1,4.45-4.45Z" transform="translate(367.93 -105.75) rotate(90)" style="fill:#494949"/><path d="M191.31,68.5h39a4.23,4.23,0,0,1,4.23,4.23v1.11a4.2,4.2,0,0,1-4.2,4.2H191.87a4.76,4.76,0,0,1-4.76-4.76v-.57a4.2,4.2,0,0,1,4.2-4.2Z" transform="translate(21.1 -44.3) rotate(12.62)" style="fill:#494949"/><path d="M196.91,70.26v25a3.58,3.58,0,0,1-3.59,3.59h-2.26a3.56,3.56,0,0,1-3.57-3.56V68a4,4,0,0,1,3.57-3.57h0A5.86,5.86,0,0,1,196.91,70.26Z" style="fill:#494949"/><path d="M191.28,94.85h46.41A4.19,4.19,0,0,1,241.88,99v1.18a4.16,4.16,0,0,1-4.16,4.16H191.91a4.79,4.79,0,0,1-4.79-4.79V99A4.16,4.16,0,0,1,191.28,94.85Z" transform="translate(26.95 -44.46) rotate(12.62)" style="fill:#494949"/><path d="M219.53,115.65l-52.21-12a5.42,5.42,0,0,0-6.93,5.53v62.73a6.24,6.24,0,0,0,3,5l26.15,14a6.28,6.28,0,0,0,5.59-.13l26-15.58a6.31,6.31,0,0,0,2.76-4.87V121.18A6,6,0,0,0,219.53,115.65Zm-3.75,48.87a4.7,4.7,0,0,1-2.05,3.62l-19.37,11.59a4.71,4.71,0,0,1-4.16.09l-19.44-10.43a4.66,4.66,0,0,1-2.22-3.71V119a4,4,0,0,1,5.16-4.1l38.8,8.9a4.43,4.43,0,0,1,3.28,4.11Z" style="fill:#494949"/></svg>