<svg xmlns="http://www.w3.org/2000/svg" viewBox="0 0 1500 408.32"><path d="M709.51,196.22v4.86H686.69a49.43,49.43,0,0,1-5,8.41v20.64h-5.16V215.29a33.14,33.14,0,0,1-3.75,3,34.87,34.87,0,0,0-2.52-4.9,32.3,32.3,0,0,0,10.62-12.29h-9.25v-4.86h11.51c.73-2,1.37-4,1.88-5.93l5.33,1.28c-.47,1.58-1,3.12-1.62,4.65Zm-10.24,28.19h10.11v4.69H683.83v-4.69h10.33v-9.72H685.5V210h8.66v-7.08h5.11V210h8.45v4.69h-8.45Z" style="fill:#595959"/><path d="M754.51,202.53a58.58,58.58,0,0,1-3.67,16.08,18.19,18.19,0,0,0,6.74,7.55,13.42,13.42,0,0,0-2.86,3.46,20.46,20.46,0,0,1-6.18-6.74,24.48,24.48,0,0,1-7.64,7.55,16.7,16.7,0,0,0-1.92-3.08l-2.73,2.35a45.25,45.25,0,0,0-5.5-2.94,44.14,44.14,0,0,1-11.94,3.15,13.45,13.45,0,0,0-1.83-3.24,50,50,0,0,0,9-1.92c-1.91-.76-3.88-1.45-5.67-2a20.37,20.37,0,0,0,1.88-2.47l-3.84.21-.38-3.37c1.87-.08,4.09-.17,6.56-.3a27.2,27.2,0,0,0,1.5-2.64h-6.27V206.5h7.63v-1.19H720.9v-4.48h-3.24v-3.58h3.24v-4.31h6.48v-2.6h3.84v2.6h6.87v4.31H741v3.58h-2.9v4.48h-6.87v1.19H739v3.11c2.81-4.56,4.22-11.81,5-19.15l4.27.56c-.3,2.39-.64,4.78-1.11,7.08h10.11v4.43Zm-30.63,8.62h3.5v-1.58h-3.5Zm1.2-15v1.36h2.3v-1.36Zm2.3,6v-1.54h-2.3v1.54Zm-1.15,19.1c1.41.47,2.86,1,4.26,1.54a7.43,7.43,0,0,0,3-3l-6.48.34Zm11.6-1.74a9.09,9.09,0,0,1-3.24,5c1.53.68,2.9,1.36,4.09,2a18.9,18.9,0,0,0,7.6-8.15,59,59,0,0,1-2.52-8.48,21.17,21.17,0,0,1-1.62,3.11,26.84,26.84,0,0,0-3.11-3.11v4.39h-8.54c-.42.81-.89,1.62-1.36,2.47l5-.25v-1.5h4v1.33l1.36-.09,0,3.2Zm-6.61-23.33v1.36h2.47v-1.36Zm2.47,6v-1.54h-2.47v1.54Zm-2.47,7.46v1.58h3.41v-1.58Zm15-7a70.52,70.52,0,0,0,2.18,10.24,56.57,56.57,0,0,0,1.83-10.24Z" style="fill:#595959"/><path d="M778.9,192a68.76,68.76,0,0,1-4,8.61v29.52h-5.12V208.59c-.9,1.11-1.79,2.18-2.69,3.16a32,32,0,0,0-2.73-5.29,45.72,45.72,0,0,0,9.73-16Zm24.83,31.6v4.91H777V223.6h14.84a144.13,144.13,0,0,0,3.49-20l5.29.81c-1.06,6.4-2.64,13.82-4.13,19.15ZM788.5,197.5a42.8,42.8,0,0,0-1.88-6.57l4.82-1.19a56.81,56.81,0,0,1,2.18,6.48l-4.48,1.28h13.14v4.91H778.52V197.5Zm-5,24.91A169.46,169.46,0,0,0,781,204.79l4.6-1a159.63,159.63,0,0,1,2.9,17.23Z" style="fill:#595959"/><path d="M826.08,221.94h-8.66v3.75h-4.69V192.94h13.35Zm-8.66-24.48V205h3.92v-7.5Zm3.92,20v-8h-3.92v8Zm20.09-18.08v4h8.44v4.39h-3.11v3.33h4.09v4.39h-4.09v9.3c0,2.43-.47,3.71-2.17,4.47s-4,.86-7.13.86a18.12,18.12,0,0,0-1.58-4.78c2,.09,4.4.09,5,.09s.89-.17.89-.77V215.5H826.89v-4.39h14.92v-3.33h-13.6v-4.39h8.23v-4h-9.6V194.9h9.6v-4.56h5v4.56H851v4.44Zm-8.66,16.76a54.11,54.11,0,0,1,5.12,6.82l-4.44,2.6a59.45,59.45,0,0,0-4.9-7.16Z" style="fill:#595959"/><path d="M873.89,192.26a67.16,67.16,0,0,1-4,7.84v30h-5.29V207.69a39.6,39.6,0,0,1-4.43,4.78,32.65,32.65,0,0,0-2.82-5.16A44.52,44.52,0,0,0,869,190.68Zm11.68,15.43c1.2,9.47,3.46,15.78,6.87,16.21,1,.09,1.49-2.05,1.83-6.78a17.38,17.38,0,0,0,4.14,2.9c-1.06,8.23-3.37,10.19-5.76,10.06-7.2-.68-10.57-8.7-12.11-21.7l-8.4,1.15-.73-4.91,8.62-1.15c-.3-3.84-.55-8-.68-12.49h5.16c.08,4.18.25,8.18.55,11.81l12.16-1.58.72,4.78Zm7.64-7.55a36.94,36.94,0,0,0-5.84-7.16l3.79-2.34a38.15,38.15,0,0,1,6.14,6.86Z" style="fill:#595959"/><path d="M909.5,216.18c3.33-1.07,5.25-2.9,5.5-5.16a1.68,1.68,0,0,1-.47,0,3.78,3.78,0,0,1-4-3.79,3.88,3.88,0,0,1,4.18-3.84c3,0,4.61,2.26,4.61,5.84,0,4.82-3.11,8.79-8.4,10.32Z" style="fill:#595959"/><path d="M968.53,210.55a42.05,42.05,0,0,1-7.08,9.34c1.15,3.29,2.47,5.25,3.75,5.25.9,0,1.41-2,1.62-7.08A13.19,13.19,0,0,0,971,221c-.81,7.46-2.38,9.34-6.27,9.34-3.11,0-5.5-2.56-7.33-6.74a44.41,44.41,0,0,1-7.89,5.2,22.38,22.38,0,0,0-3.37-4.09,43.07,43.07,0,0,0,9.51-6,78.46,78.46,0,0,1-2.17-11.42h-8.66v4.86l6.57-1.2.38,4.61-6.95,1.41v7.29c0,2.77-.6,4.14-2.31,5s-4.22,1-7.67,1a20.85,20.85,0,0,0-1.79-5.12c2.38.13,4.86.08,5.63,0s1-.21,1-.89V218c-2.73.56-5.37,1.11-7.63,1.54l-1.24-5.12c2.43-.38,5.5-.85,8.87-1.45v-5.71h-8.06v-4.82h8.06v-4.87c-2.3.39-4.65.69-6.82.94a20,20,0,0,0-1.45-4.26,109.13,109.13,0,0,0,16.93-3.58l3.41,4.3c-2.13.64-4.48,1.2-6.95,1.71v5.76H953c-.35-3.84-.47-7.81-.52-11.69h5.34a104.38,104.38,0,0,0,.42,11.69h11.6v4.82H958.76c.34,2.55.77,5,1.24,7.2a35,35,0,0,0,4-5.8Zm-3.11-9.38a34.11,34.11,0,0,0-6.06-7l3.84-2.6a37,37,0,0,1,6.31,6.78Z" style="fill:#595959"/><path d="M1001.76,208.85h-7.34V230h-4.69V192.68c-.85,2.43-1.83,4.95-2.94,7.38v30.07H982V208.8a34,34,0,0,1-2.65,3.5,35,35,0,0,0-2.43-5.46c3.46-4,6.57-10.19,8.45-16.46l4.69,1.41-.26.81h12Zm-7.34-12.41v2.43h3.5v-2.43Zm3.5,8.57v-2.52h-3.5V205Zm18.42,19.23c0,2.82-.6,4.18-2.3,4.91s-4.44.93-8.45.93a18.44,18.44,0,0,0-1.62-4.9c2.61.17,5.55.13,6.4.09s1.11-.26,1.11-1.07V208.85h-7.81V192.6h12.67Zm-8.66-27.8v2.43h3.8v-2.43Zm3.8,8.57v-2.52h-3.8V205Z" style="fill:#595959"/><path d="M1043.21,197.33l1.5-.08,0,4.73-1.45.13c-.13,4.9-.81,11-4,16.84,2.13,1.92,4,3.76,5.37,5.21l-3.79,3.83a56.19,56.19,0,0,0-4.52-4.77A30.39,30.39,0,0,1,1028,230a18.34,18.34,0,0,0-3.59-3.84,26.1,26.1,0,0,0,8.06-6.61c-2.34-2.13-4.77-4.26-6.86-6.14a104,104,0,0,0,2.43-10.36l-3.12.21-.51-5c1.37,0,2.86-.13,4.48-.21.38-2.56.68-5.12.85-7.47l5.42.3c-.26,2.18-.6,4.56-1,6.91l4.09-.21v-2h5Zm-9.93,5.46c-.64,3.28-1.37,6.52-2,9.34,1.24,1.07,2.6,2.22,3.92,3.37a30.18,30.18,0,0,0,3-13.05Zm29-8.06v33.61h-5v-2.48h-6.74V229h-4.82V194.73Zm-5,26.31V199.51h-6.74V221Z" style="fill:#595959"/><path d="M1085.52,191.83a70.22,70.22,0,0,1-3.49,7.8V230H1077v-22.3a43.18,43.18,0,0,1-3,3.58,32.43,32.43,0,0,0-2.72-5.29,43.85,43.85,0,0,0,9.51-15.74Zm25.89,7h-2.56v25.29c0,2.94-.64,4.3-2.47,5.11s-4.69.94-8.66.94A18.86,18.86,0,0,0,1096,225c2.78.13,5.76.13,6.61.13s1.11-.26,1.11-1.07v-25.2h-18.59V194h26.27Zm-21,20v2.77h-4.73V203.47h14.2v15.44Zm0-11v6.66h4.74v-6.66Z" style="fill:#595959"/><path d="M1153.34,225.09c.68,0,.85-.55.94-4.56a12.14,12.14,0,0,0,4.34,1.92c-.46,5.72-1.7,7.29-4.69,7.29h-2.85c-3.88,0-4.7-1.53-4.7-5.93v-8.52h-2c-.64,6.73-2.17,12-9.12,15.14a14.34,14.34,0,0,0-2.52-3.54v.93h-8.32v1.8h-4.35V214.9h12.67v11.43c5.29-2.3,6.27-6.14,6.65-11h-2.77V203.73c-.47.47-1,.94-1.45,1.36a31,31,0,0,0-3.58-3.58l.17-.13h-13.35v-4h6.4a38.59,38.59,0,0,0-2-5.37l4.27-1.32a31.51,31.51,0,0,1,2.34,5.5l-3.28,1.19h7.5v2.35a29.44,29.44,0,0,0,6.06-8.83l4.69,1.45a43.63,43.63,0,0,1-5.93,9.38h14.63a82.4,82.4,0,0,0-7-8.87l3.54-2.39c3.24,3.42,7.29,8.15,9,11.31l-3.84,2.77c-.26-.47-.51-.94-.85-1.45v12.2h-2.69v8.44c0,1.24.08,1.36.68,1.36Zm-21.11-18h-12V203.3h12Zm-12,1.88h12v3.83h-12Zm8.4,9.93h-4.14v4.78h4.14Zm12.84-8.06h7.5v-4.73h-7.5Z" style="fill:#595959"/><path d="M1181.57,203.39a39.59,39.59,0,0,1-2.94,14.75,65.57,65.57,0,0,1,5.16,5.16l-3.33,4.23a54.34,54.34,0,0,0-4.35-4.78,29.23,29.23,0,0,1-7.25,7.51,18.49,18.49,0,0,0-3.58-3.54,25.85,25.85,0,0,0,7.21-7.47c-2.18-2-4.44-4.05-6.36-5.76.69-2.55,1.41-5.8,2-9.29l-2.39.17-.47-4.82,3.63-.13c.42-3.07.76-6.14.93-9l5,.22c-.26,2.68-.6,5.58-1.07,8.53l3.07-.17v-2.69h4.74v2.43l2.21-.13v4.57Zm-8.53.55c-.51,2.82-1,5.59-1.58,8,1.07.89,2.18,1.83,3.29,2.77a35.2,35.2,0,0,0,2.09-11Zm32.16,8.74h-8.53v12c0,2.6-.55,3.88-2.35,4.69s-4.13.85-7.46.81a18.49,18.49,0,0,0-1.7-4.82c2.13,0,4.6,0,5.28,0s.94-.17.94-.81v-11.9h-9v-4.82h9v-4.09a33.71,33.71,0,0,0,5.2-6.23h-12.49v-4.6h15.82l1.2-.26,3.41,2.48a52.34,52.34,0,0,1-7.85,9.51v3.19h8.53Z" style="fill:#595959"/><path d="M1249.43,202.7c-1.07,6.49-2.77,11.86-5.33,16.21a21.05,21.05,0,0,0,8.53,6.87,18.54,18.54,0,0,0-3.46,4.39,23.42,23.42,0,0,1-8.31-6.87,30.47,30.47,0,0,1-9.6,6.83,20.78,20.78,0,0,0-2.69-4.35h-9.85v2.51H1214V209.44h5.67v-6.57h-7.42v-4.73h7.42v-7.8h5.08v7.8h7v4.73h-7v6.57h4.69a13.26,13.26,0,0,0-1.19-.85c3.79-4.14,6.14-11,7.29-18.25l5.2.81c-.43,2.3-1,4.6-1.62,6.78h13v4.77Zm-23.88,11.48h-6.83V221h6.83Zm4.82,10.57a22.18,22.18,0,0,0,7.67-5.84,50.09,50.09,0,0,1-3.67-9.64,22.24,22.24,0,0,1-1.87,2.69c-.47-.43-1.28-1.15-2.13-1.83Zm7.25-22.05a46.68,46.68,0,0,0,3.49,11.35,39,39,0,0,0,3.24-11.35Z" style="fill:#595959"/><path d="M1298.82,218.31h-4.44v7.42h-5.16V224h-7.67v1.32c0,2.51-.6,3.54-2.26,4.26s-3.93.73-7.55.73a15.62,15.62,0,0,0-1.67-4c2,.08,4.57.08,5.25.08s1.07-.29,1.07-1.06V224h-13v-3.67h13v-2H1259.5v-3.88h16.89V212.6h-12.63v-3.41h12.63v-1.88h-11.56v-8.44h11.56v-1.75h-15.91v-4h15.91v-2.77h5.16v2.77h16.29v4h-16.29v1.75h12.11v8.44h-12.11v1.88h12.83v5.24h4.44Zm-22.43-14.2v-2.05h-6.7v2.05Zm5.16-2.05v2.05h6.91v-2.05Zm0,12.37h7.67V212.6h-7.67Zm7.67,3.88h-7.67v2h7.67Z" style="fill:#595959"/><path d="M1324.24,203.13c0-2.56-2-4-5.37-4a8.84,8.84,0,0,0-6.83,3.37l-3.49-3.24a14.16,14.16,0,0,1,11-5.2c6.18,0,10.7,2.85,10.7,8.53,0,6.27-9.29,7-8.65,12.92h-5.51C1315.2,208.8,1324.24,207.27,1324.24,203.13Zm-5.37,15.31a4.21,4.21,0,1,1-4.44,4.18A4.15,4.15,0,0,1,1318.87,218.44Z" style="fill:#595959"/><g style="isolation:isolate"><g style="isolation:isolate"><path d="M277.06,179.29h19.71v4H277.06Zm18.91,31c0,1.7-.23,2.69-1.34,3.29s-2.42.63-4.37.63a14.16,14.16,0,0,0-1-3.53c1,0,2.14,0,2.46,0s.48-.12.48-.47v-12.1H281.3v16.66h-3.57V194.72H296Zm-1.07-17H279v-8.6H294.9ZM284,203.92a18.61,18.61,0,0,0-1.83-4.2l2.42-.87a17.12,17.12,0,0,1,2,4.08Zm4.44,2.9v6.66h-3.33v-6.66h-2.86V204h4.45a47.71,47.71,0,0,0,2.14-5.35l2.85,1.15c-.75,1.35-1.47,2.89-2.18,4.2h1.75v2.86Zm2.3-19H283v2.3h7.73Zm19.71,27c-.12-.88-.28-2-.52-3.1-4.28.8-8.6,1.59-12,2.26l-1-4.28c1.66-.2,3.69-.48,5.87-.83v-7.26h-5.32v-16.3h5.32v-6.9h4.08v6.9h5.39v16.3h-5.39v6.62l2.18-.35c-.36-1.35-.71-2.78-1.11-4l3.17-.63A75.8,75.8,0,0,1,313.82,214Zm-9.68-17.25h2.42v-8.25h-2.42Zm8-8.25h-2.3v8.25h2.3Z" style="fill:#595959"/></g><g style="isolation:isolate"><path d="M358.48,189.17a53.59,53.59,0,0,1-3.41,15,17,17,0,0,0,6.27,7,12.45,12.45,0,0,0-2.66,3.21,19,19,0,0,1-5.75-6.26,22.53,22.53,0,0,1-7.1,7,15.74,15.74,0,0,0-1.78-2.85l-2.54,2.18a43.38,43.38,0,0,0-5.12-2.74,41.43,41.43,0,0,1-11.1,2.94,12.7,12.7,0,0,0-1.71-3,46.85,46.85,0,0,0,8.37-1.78,55.21,55.21,0,0,0-5.27-1.82,20,20,0,0,0,1.74-2.3l-3.57.19-.35-3.13c1.74-.08,3.8-.16,6.1-.28A24.34,24.34,0,0,0,332,200h-5.83v-7.17h7.1v-1.11h-6v-4.17h-3v-3.33h3v-4h6v-2.42h3.57v2.42h6.38v4h2.7v3.33h-2.7v4.17h-6.38v1.11h7.26v2.89c2.61-4.24,3.92-11,4.64-17.8l4,.51c-.28,2.22-.59,4.44-1,6.58h9.4v4.13Zm-28.47,8h3.25v-1.47H330Zm1.11-14v1.27h2.14v-1.27Zm2.14,5.55v-1.43h-2.14v1.43Zm-1.07,17.77c1.31.44,2.66.91,4,1.43a6.94,6.94,0,0,0,2.77-2.82l-6,.32ZM343,204.91a8.44,8.44,0,0,1-3,4.68c1.43.64,2.7,1.27,3.81,1.83a17.67,17.67,0,0,0,7.06-7.58,55.76,55.76,0,0,1-2.34-7.89,20.31,20.31,0,0,1-1.51,2.9,23.94,23.94,0,0,0-2.89-2.9V200h-7.93c-.4.76-.84,1.51-1.27,2.3l4.64-.23v-1.39h3.68v1.23l1.27-.08,0,3Zm-6.15-21.69v1.27h2.3v-1.27Zm2.3,5.55v-1.43h-2.3v1.43Zm-2.3,6.94v1.47H340v-1.47Zm14-6.54a67.1,67.1,0,0,0,2,9.52,53,53,0,0,0,1.71-9.52Z" style="fill:#595959"/></g><g style="isolation:isolate"><path d="M401.2,200.31a23.19,23.19,0,0,0,7.73,4.6,16.57,16.57,0,0,0-3.13,3.65,26.73,26.73,0,0,1-6.22-4.16v2.93h-7.22v2.58h12.93v3.89H375.11v-3.89h12.45v-2.58h-7v-2.46a27.29,27.29,0,0,1-6.31,4,17.4,17.4,0,0,0-3-3.61,23.92,23.92,0,0,0,8-5h-7.65v-3.84h7.57V184.65h-5.47v-3.81h5.47v-3h4.72v3h12.41v-3h4.84v3h5.44v3.81h-5.44v11.82h7.34v3.84Zm-2.5,3.29a24.34,24.34,0,0,1-2.85-3.29H384.66a24,24,0,0,1-2.81,3.29h5.71v-2.46h4.8v2.46Zm-14.83-18.95v1.74h12.41v-1.74Zm0,6.74h12.41v-1.75H383.87Zm0,5.08h12.41v-1.79H383.87Z" style="fill:#595959"/></g><g style="isolation:isolate"><path d="M431.54,198.65l1.07,4.2c-4.12,2-8.56,4.16-12.17,5.79l-1.9-4.76c1.46-.51,3.21-1.15,5.15-1.94V191.43h-4.28V187h4.28v-8.61h4.36V187h3.69v4.48h-3.69v8.68Zm17.69,11.26c2.14,0,2.54-.91,2.9-5a12.15,12.15,0,0,0,4.12,1.71c-.63,5.55-2,7.45-6.62,7.45h-8.45c-5.35,0-6.9-1.46-6.9-6.9V197l-2.14.91-1.75-4.16,3.89-1.67V181.63h4.52v8.49l3.29-1.39V177.79h4.4v9l4.33-1.86,3.57,1.14-.16.72a131.88,131.88,0,0,1-1.75,17.49l-3.84-1.07c.43-3.22.75-8.25.91-12.93l-3.06,1.35v14h-4.4v-12.1L438.8,195v12.25c0,2.3.36,2.66,2.78,2.66Z" style="fill:#595959"/></g></g><path d="M277.7,235.4h5.75c6.1,0,10.13,2.93,10.13,9.89s-4,10.11-9.86,10.11h-6Zm5.46,16.13c3.22,0,5.51-1.48,5.51-6.24s-2.29-6.07-5.51-6.07h-.65v12.31Z" style="fill:#595959"/><path d="M297.29,235.4H303c6.1,0,10.13,2.93,10.13,9.89s-4,10.11-9.86,10.11h-6Zm5.46,16.13c3.22,0,5.51-1.48,5.51-6.24s-2.29-6.07-5.51-6.07h-.65v12.31Z" style="fill:#595959"/><path d="M321.78,252.9l2.71-3.31a8.07,8.07,0,0,0,4.86,2c1.78,0,2.61-.67,2.61-1.74s-1.1-1.53-2.82-2.26l-2.55-1.07a5.86,5.86,0,0,1-4.06-5.49c0-3.35,3-6,7.25-6a9.31,9.31,0,0,1,6.51,2.63l-2.39,3a6.55,6.55,0,0,0-4.12-1.53c-1.47,0-2.39.59-2.39,1.67s1.27,1.53,3,2.23l2.5,1c2.47,1,3.95,2.66,3.95,5.48,0,3.33-2.8,6.26-7.63,6.26A11.17,11.17,0,0,1,321.78,252.9Z" style="fill:#595959"/><path d="M339.57,249.73v-5.89H337.5v-3.55l2.34-.18.53-4h4v4H348v3.73h-3.6v5.83c0,1.7.81,2.37,1.93,2.37a5.19,5.19,0,0,0,1.4-.27l.75,3.44a11.23,11.23,0,0,1-3.46.56C341.13,255.77,339.57,253.35,339.57,249.73Z" style="fill:#595959"/><path d="M349.46,247.77c0-5.08,3.6-8,7.49-8s7.47,3,7.47,8-3.6,8-7.47,8S349.46,252.82,349.46,247.77Zm10.07,0c0-2.56-.8-4.17-2.58-4.17s-2.6,1.61-2.6,4.17.8,4.13,2.6,4.13S359.53,250.29,359.53,247.77Z" style="fill:#595959"/><path d="M367.44,240.11h3.89l.32,2.66h.11a5.22,5.22,0,0,1,4.36-3,4.29,4.29,0,0,1,1.85.32l-.81,4.11a6.38,6.38,0,0,0-1.66-.24c-1.13,0-2.5.73-3.31,2.74v8.74h-4.75Z" style="fill:#595959"/><path d="M379.69,261l.86-3.62a5.62,5.62,0,0,0,1,.19,2.45,2.45,0,0,0,2.55-1.83l.22-.78-5.86-14.83h4.81l2,6.34c.46,1.4.78,2.82,1.18,4.32h.14c.3-1.45.64-2.87,1-4.32l1.78-6.34H394l-5.24,15.31c-1.51,3.93-3.15,5.86-6.77,5.86A7.31,7.31,0,0,1,379.69,261Z" style="fill:#595959"/><path d="M402.8,235.4h4.81V243h6.58V235.4H419v20h-4.76v-8.23h-6.58v8.23H402.8Z" style="fill:#595959"/><path d="M423.06,249.56v-9.45h4.79V249c0,2.13.56,2.72,1.77,2.72a2.88,2.88,0,0,0,2.55-1.56v-10H437V255.4h-3.9l-.35-2.1h-.11a5.91,5.91,0,0,1-4.78,2.47C424.49,255.77,423.06,253.38,423.06,249.56Z" style="fill:#595959"/><path d="M445,253.76h-.11l-.38,1.64H440.8V233.93h4.76v5.16l-.11,2.28a6,6,0,0,1,3.95-1.64c3.65,0,6,3.06,6,7.74,0,5.29-3.14,8.3-6.42,8.3A5.41,5.41,0,0,1,445,253.76Zm5.45-6.18c0-2.69-.78-4-2.47-4a3.24,3.24,0,0,0-2.44,1.29v6a3.33,3.33,0,0,0,2.28.89C449.29,251.85,450.47,250.64,450.47,247.58Z" style="fill:#595959"/><path d="M127.54,223.63c.67,1.55,1.64,4,2.6,6.94,2.35,7.28,1.43,8,3.41,12a20.9,20.9,0,0,0,8.59,9.25l.11.06a20.35,20.35,0,0,0,8.11,2.1c6.08.51,11.7.6,11.71.6s-8.82-14.09-21.32-23.41C136.44,227.92,133.84,225.27,127.54,223.63Z" style="fill:#d9d9d9"/><path d="M127.54,223.63s19.4-4,30.44,5,4.09,25.89,4.09,25.89S146.81,230.82,127.54,223.63Z" style="fill:#d9d9d9"/><path d="M208.15,260.49,173,281.63a2.14,2.14,0,0,1-2.93-.74L165.92,274a2.11,2.11,0,0,1,.72-2.88l37-22.24a2.1,2.1,0,0,1,2.88.72l3.43,1.13C210,254.32,210.14,259.29,208.15,260.49Z" style="fill:#d9d9d9"/><circle cx="199.43" cy="150.19" r="10.17" style="fill:#d9d9d9"/><path d="M168.16,211.81h71.33a3.52,3.52,0,0,1,3.52,3.52v5.24a3.47,3.47,0,0,1-3.47,3.47H168.16a3.47,3.47,0,0,1-3.47-3.47v-5.29A3.47,3.47,0,0,1,168.16,211.81Z" transform="translate(421.78 14.07) rotate(90)" style="fill:#d9d9d9"/><path d="M142.58,136.64h55a3.34,3.34,0,0,1,3.34,3.34v5.72A3.31,3.31,0,0,1,197.6,149H143a3.76,3.76,0,0,1-3.76-3.76V140a3.31,3.31,0,0,1,3.31-3.31Z" transform="translate(35.31 -33.71) rotate(12.62)" style="fill:#d9d9d9"/><path d="M152,138.93v32.53a4.67,4.67,0,0,1-4.66,4.67H144.4a4.63,4.63,0,0,1-4.63-4.64V136a5.13,5.13,0,0,1,4.63-4.63h0A7.6,7.6,0,0,1,152,138.93Z" style="fill:#d9d9d9"/><path d="M142.57,170.86h64.51a3.31,3.31,0,0,1,3.31,3.31v5.77a3.29,3.29,0,0,1-3.29,3.29h-64a3.79,3.79,0,0,1-3.79-3.79v-5.3a3.29,3.29,0,0,1,3.29-3.29Z" transform="translate(42.91 -33.92) rotate(12.62)" style="fill:#d9d9d9"/><path d="M181.37,197.88l-67.8-15.55a7.05,7.05,0,0,0-9,7.18V271a8.14,8.14,0,0,0,3.89,6.49l34,18.23a8.2,8.2,0,0,0,7.26-.17l33.84-20.24a8.2,8.2,0,0,0,3.58-6.32V205.06A7.73,7.73,0,0,0,181.37,197.88Zm-4.87,63.47a6.09,6.09,0,0,1-2.66,4.69l-25.16,15a6,6,0,0,1-5.39.12L118,267.67a6.05,6.05,0,0,1-2.88-4.83V202.28a5.23,5.23,0,0,1,6.69-5.33l50.4,11.56a5.73,5.73,0,0,1,4.25,5.33Z" style="fill:#d9d9d9"/><path d="M123.26,216.47c.66,1.55,1.63,3.95,2.6,6.94,2.35,7.28,1.42,8,3.4,12a21,21,0,0,0,8.6,9.25l.11.06a20.35,20.35,0,0,0,8.1,2.1c6.09.51,11.71.6,11.71.6S149,233.3,136.47,224C132.16,220.76,129.56,218.11,123.26,216.47Z" style="fill:#a3bb6d"/><path d="M123.26,216.47s19.39-4,30.43,5,4.09,25.89,4.09,25.89S142.52,223.66,123.26,216.47Z" style="fill:#84aa42"/><path d="M203.87,253.33l-35.18,21.13a2.13,2.13,0,0,1-2.93-.73l-4.12-6.85a2.1,2.1,0,0,1,.72-2.89l37-22.23a2.1,2.1,0,0,1,2.89.72l3.43,1.13C205.69,247.16,205.85,252.13,203.87,253.33Z" style="fill:#494949"/><circle cx="195.15" cy="143.03" r="10.17" style="fill:#494949"/><path d="M163.88,204.65h71.33a3.52,3.52,0,0,1,3.52,3.52v5.24a3.47,3.47,0,0,1-3.47,3.47H163.88a3.47,3.47,0,0,1-3.47-3.47v-5.29A3.47,3.47,0,0,1,163.88,204.65Z" transform="translate(410.33 11.2) rotate(90)" style="fill:#494949"/><path d="M138.3,129.48h55a3.34,3.34,0,0,1,3.34,3.34v5.72a3.31,3.31,0,0,1-3.31,3.31H138.75a3.76,3.76,0,0,1-3.76-3.76v-5.3A3.31,3.31,0,0,1,138.3,129.48Z" transform="translate(33.65 -32.95) rotate(12.62)" style="fill:#494949"/><path d="M147.72,131.76V164.3a4.66,4.66,0,0,1-4.67,4.66h-2.94a4.63,4.63,0,0,1-4.63-4.63V128.79a5.13,5.13,0,0,1,4.63-4.63h0A7.61,7.61,0,0,1,147.72,131.76Z" style="fill:#494949"/><path d="M138.29,163.7H202.8a3.31,3.31,0,0,1,3.31,3.31v5.77a3.29,3.29,0,0,1-3.29,3.29h-64a3.79,3.79,0,0,1-3.79-3.79V167a3.29,3.29,0,0,1,3.29-3.29Z" transform="translate(41.24 -33.16) rotate(12.62)" style="fill:#494949"/><path d="M177.09,190.72l-67.8-15.56a7.06,7.06,0,0,0-9,7.18v81.48a8.15,8.15,0,0,0,3.88,6.49l34,18.22a8.22,8.22,0,0,0,7.27-.16l33.83-20.25a8.2,8.2,0,0,0,3.59-6.32V197.89A7.74,7.74,0,0,0,177.09,190.72Zm-4.88,63.46a6.08,6.08,0,0,1-2.66,4.7L144.4,273.93a6.1,6.1,0,0,1-5.4.12L113.76,260.5a6,6,0,0,1-2.89-4.82V195.12a5.24,5.24,0,0,1,6.7-5.33L168,201.34a5.75,5.75,0,0,1,4.25,5.34Z" style="fill:#494949"/></svg>