<svg xmlns="http://www.w3.org/2000/svg" viewBox="0 0 240 240"><g style="isolation:isolate"><g style="isolation:isolate"><path d="M73.31,184.77H84v2.14H73.31Zm10.22,16.75c0,.92-.13,1.46-.73,1.78a4.84,4.84,0,0,1-2.36.34,7.66,7.66,0,0,0-.54-1.9c.56,0,1.16,0,1.33,0s.26-.07.26-.26V195H75.6v9H73.67V193.1h9.86ZM83,192.35H74.38v-4.64H83ZM77,198.07a10,10,0,0,0-1-2.27l1.31-.47a9.86,9.86,0,0,1,1.07,2.21Zm2.4,1.57v3.6h-1.8v-3.6H76.09V198.1h2.4a24.68,24.68,0,0,0,1.16-2.9l1.54.62c-.41.73-.79,1.57-1.18,2.28H81v1.54Zm1.25-10.24H76.5v1.24h4.18ZM91.32,204c-.06-.48-.15-1.05-.28-1.67-2.31.42-4.64.85-6.49,1.22L84,201.2c.9-.1,2-.26,3.17-.45v-3.92H84.32V188h2.87V184.3H89.4V188h2.91v8.8H89.4v3.58l1.17-.19c-.19-.73-.38-1.5-.6-2.19l1.72-.34a41.62,41.62,0,0,1,1.48,5.8Zm-5.22-9.32h1.3v-4.46H86.1Zm4.32-4.46H89.18v4.46h1.24Z" style="fill:#595959"/></g><g style="isolation:isolate"><path d="M117.29,190.1a28.83,28.83,0,0,1-1.84,8.08,9.09,9.09,0,0,0,3.39,3.79,6.59,6.59,0,0,0-1.44,1.74,10.23,10.23,0,0,1-3.1-3.39,12.23,12.23,0,0,1-3.84,3.8,8.66,8.66,0,0,0-1-1.55l-1.37,1.18a24.47,24.47,0,0,0-2.77-1.48,22.15,22.15,0,0,1-6,1.59,6.9,6.9,0,0,0-.92-1.63,26,26,0,0,0,4.52-1,29.43,29.43,0,0,0-2.85-1,10.28,10.28,0,0,0,1-1.24l-1.93.11-.19-1.7c.94,0,2-.08,3.29-.15A12.75,12.75,0,0,0,103,196H99.83V192.1h3.84v-.6h-3.26v-2.25H98.79v-1.8h1.62v-2.17h3.26V184h1.93v1.3h3.45v2.17h1.45v1.8h-1.45v2.25H105.6v.6h3.92v1.56c1.41-2.29,2.12-5.93,2.51-9.62l2.14.28c-.15,1.2-.32,2.4-.56,3.56h5.08v2.22Zm-15.38,4.33h1.76v-.79h-1.76Zm.6-7.54v.69h1.16v-.69Zm1.16,3v-.77h-1.16v.77Zm-.58,9.6c.71.23,1.44.49,2.14.77a3.65,3.65,0,0,0,1.5-1.52l-3.25.17Zm5.83-.88a4.6,4.6,0,0,1-1.63,2.53c.77.34,1.46.68,2.06,1a9.46,9.46,0,0,0,3.81-4.09,30.24,30.24,0,0,1-1.26-4.26,10.91,10.91,0,0,1-.82,1.56,13.51,13.51,0,0,0-1.56-1.56V196h-4.29c-.21.41-.45.82-.68,1.25l2.5-.13v-.75h2V197l.68,0,0,1.61Zm-3.32-11.72v.69h1.24v-.69Zm1.24,3v-.77H105.6v.77Zm-1.24,3.75v.79h1.71v-.79Zm7.54-3.54a36.22,36.22,0,0,0,1.09,5.15,28.26,28.26,0,0,0,.92-5.15Z" style="fill:#595959"/></g><g style="isolation:isolate"><path d="M140.37,196.13a12.88,12.88,0,0,0,4.18,2.48,8.86,8.86,0,0,0-1.69,2,14.21,14.21,0,0,1-3.36-2.25v1.59h-3.9v1.39h7v2.1h-16.3v-2.1H133v-1.39h-3.79v-1.33a14.55,14.55,0,0,1-3.4,2.18,9.87,9.87,0,0,0-1.63-2,12.94,12.94,0,0,0,4.33-2.69h-4.14v-2.08h4.09v-6.39h-3v-2h3V184H131v1.61h6.71V184h2.61v1.61h2.94v2h-2.94v6.39h4v2.08ZM139,197.9a13.47,13.47,0,0,1-1.54-1.77h-6a12.61,12.61,0,0,1-1.52,1.77H133v-1.33h2.6v1.33Zm-8-10.24v.94h6.71v-.94Zm0,3.65h6.71v-.95H131Zm0,2.74h6.71v-1H131Z" style="fill:#595959"/></g><g style="isolation:isolate"><path d="M156.77,195.22l.58,2.28c-2.23,1.09-4.63,2.25-6.58,3.12l-1-2.57c.8-.28,1.74-.62,2.79-1.05v-5.67h-2.32v-2.42h2.32v-4.65h2.35v4.65h2v2.42h-2V196Zm9.55,6.09c1.16,0,1.38-.49,1.57-2.68a6.57,6.57,0,0,0,2.23.92c-.35,3-1.08,4-3.58,4H162c-2.9,0-3.73-.79-3.73-3.73v-5.52l-1.16.49-.94-2.25,2.1-.9V186h2.44v4.59l1.78-.75V184h2.38v4.88l2.33-1,1.93.63-.09.38a68.56,68.56,0,0,1-.94,9.45l-2.08-.58c.24-1.74.41-4.46.5-7l-1.65.72V199h-2.38v-6.54l-1.78.77v6.62c0,1.25.19,1.44,1.5,1.44Z" style="fill:#595959"/></g></g><path d="M100.2,112.2c.51,1.2,1.26,3,2,5.34,1.81,5.61,1.1,6.18,2.62,9.22a16.14,16.14,0,0,0,6.62,7.12l.08,0a15.61,15.61,0,0,0,6.24,1.62c4.69.39,9,.46,9,.46s-6.79-10.85-16.41-18C107.05,115.5,105.05,113.46,100.2,112.2Z" style="fill:#d9d9d9"/><path d="M100.2,112.2s14.93-3.08,23.43,3.87S126.78,136,126.78,136,115,117.74,100.2,112.2Z" style="fill:#d9d9d9"/><path d="M162.25,140.57l-27.08,16.28a1.64,1.64,0,0,1-2.25-.57L129.74,151a1.62,1.62,0,0,1,.56-2.22l28.49-17.12a1.62,1.62,0,0,1,2.22.55l2.64.87C163.65,135.83,163.78,139.65,162.25,140.57Z" style="fill:#d9d9d9"/><circle cx="155.54" cy="55.66" r="7.83" style="fill:#d9d9d9"/><path d="M133.24,103.1h51.34a4.51,4.51,0,0,1,4.51,4.51v.46a4.45,4.45,0,0,1-4.45,4.45h-51.4a4.45,4.45,0,0,1-4.45-4.45v-.53a4.45,4.45,0,0,1,4.45-4.45Z" transform="translate(266.75 -51.14) rotate(90)" style="fill:#d9d9d9"/><path d="M113.42,45.23h39a4.23,4.23,0,0,1,4.23,4.23v1.11a4.2,4.2,0,0,1-4.2,4.2H114A4.76,4.76,0,0,1,109.23,50v-.57a4.2,4.2,0,0,1,4.2-4.2Z" transform="translate(14.14 -27.84) rotate(12.62)" style="fill:#d9d9d9"/><path d="M119,47V72a3.59,3.59,0,0,1-3.59,3.59h-2.26a3.57,3.57,0,0,1-3.57-3.57V44.7a4,4,0,0,1,3.56-3.56h0A5.85,5.85,0,0,1,119,47Z" style="fill:#d9d9d9"/><path d="M113.4,71.58h46.39A4.19,4.19,0,0,1,164,75.77v1.17a4.16,4.16,0,0,1-4.16,4.16H114a4.79,4.79,0,0,1-4.79-4.79v-.58a4.16,4.16,0,0,1,4.16-4.16Z" transform="translate(19.98 -28) rotate(12.62)" style="fill:#d9d9d9"/><path d="M141.64,92.37l-52.19-12a5.43,5.43,0,0,0-6.94,5.53v62.72a6.26,6.26,0,0,0,3,5l26.14,14a6.31,6.31,0,0,0,5.59-.13L143.28,152A6.31,6.31,0,0,0,146,147.1V97.9A6,6,0,0,0,141.64,92.37Zm-3.75,48.86a4.7,4.7,0,0,1-2,3.62l-19.37,11.58a4.66,4.66,0,0,1-4.15.1L92.88,146.1a4.66,4.66,0,0,1-2.22-3.71V95.77a4,4,0,0,1,5.16-4.11l38.79,8.9a4.43,4.43,0,0,1,3.28,4.1Z" style="fill:#d9d9d9"/><path d="M96.9,106.69c.51,1.19,1.26,3,2,5.34,1.81,5.6,1.1,6.18,2.62,9.22a16.2,16.2,0,0,0,6.62,7.12l.08,0a15.78,15.78,0,0,0,6.24,1.62c4.69.39,9,.46,9,.46s-6.79-10.85-16.41-18C103.75,110,101.75,108,96.9,106.69Z" style="fill:#ababab"/><path d="M96.9,106.69s14.93-3.08,23.43,3.87,3.15,19.93,3.15,19.93S111.73,112.22,96.9,106.69Z" style="fill:#939393"/><path d="M159,135.06l-27.08,16.27a1.63,1.63,0,0,1-2.25-.56l-3.17-5.28a1.61,1.61,0,0,1,.55-2.22l28.49-17.11a1.61,1.61,0,0,1,2.22.55l2.64.87C160.36,130.31,160.49,134.14,159,135.06Z" style="fill:#494949"/><circle cx="152.24" cy="50.15" r="7.83" style="fill:#494949"/><path d="M129.94,97.59h51.34a4.51,4.51,0,0,1,4.51,4.51v.46a4.45,4.45,0,0,1-4.45,4.45h-51.4a4.45,4.45,0,0,1-4.45-4.45V102a4.45,4.45,0,0,1,4.45-4.45Z" transform="translate(257.94 -53.35) rotate(90)" style="fill:#494949"/><path d="M110.12,39.72h39a4.23,4.23,0,0,1,4.23,4.23V45a4.2,4.2,0,0,1-4.2,4.2h-38.5a4.76,4.76,0,0,1-4.76-4.76v-.57a4.2,4.2,0,0,1,4.2-4.2Z" transform="translate(12.85 -27.25) rotate(12.62)" style="fill:#494949"/><path d="M115.73,41.48V66.53a3.59,3.59,0,0,1-3.59,3.59h-2.26a3.57,3.57,0,0,1-3.57-3.57V39.19a4,4,0,0,1,3.56-3.57h0A5.86,5.86,0,0,1,115.73,41.48Z" style="fill:#494949"/><path d="M110.1,66.06h46.39a4.19,4.19,0,0,1,4.19,4.19v1.17a4.16,4.16,0,0,1-4.16,4.16h-45.8a4.79,4.79,0,0,1-4.79-4.79v-.58a4.16,4.16,0,0,1,4.16-4.16Z" transform="translate(18.7 -27.42) rotate(12.62)" style="fill:#494949"/><path d="M138.34,86.86l-52.19-12a5.43,5.43,0,0,0-6.94,5.53v62.72a6.26,6.26,0,0,0,3,5l26.14,14a6.3,6.3,0,0,0,5.6-.13l26-15.58a6.31,6.31,0,0,0,2.76-4.86V92.39A6,6,0,0,0,138.34,86.86Zm-3.75,48.86a4.7,4.7,0,0,1-2.05,3.62l-19.36,11.58a4.72,4.72,0,0,1-4.16.1L89.59,140.59a4.64,4.64,0,0,1-2.22-3.72V90.25a4,4,0,0,1,5.15-4.11l38.8,8.9a4.43,4.43,0,0,1,3.27,4.11Z" style="fill:#494949"/></svg>