<svg xmlns="http://www.w3.org/2000/svg" viewBox="0 0 240 240"><path d="M90.89,137.57c.78,1.8,1.9,4.57,3,8.05,2.72,8.43,1.65,9.3,3.94,13.88a24.44,24.44,0,0,0,10,10.72l.13.07a23.55,23.55,0,0,0,9.4,2.43c7.05.59,13.57.7,13.57.7s-10.22-16.34-24.71-27.15C101.21,142.54,98.2,139.47,90.89,137.57Z" style="fill:#d9d9d9"/><path d="M90.89,137.57s22.49-4.65,35.29,5.83,4.74,30,4.74,30S113.23,145.9,90.89,137.57Z" style="fill:#d9d9d9"/><path d="M184.36,180.3l-40.79,24.51a2.48,2.48,0,0,1-3.4-.84L135.4,196a2.44,2.44,0,0,1,.83-3.35l42.91-25.78a2.44,2.44,0,0,1,3.34.83l4,1.31C186.47,173.16,186.67,178.92,184.36,180.3Z" style="fill:#d9d9d9"/><circle cx="174.25" cy="52.41" r="11.8" style="fill:#d9d9d9"/><path d="M140.67,123.86H218a6.8,6.8,0,0,1,6.8,6.8v.69a6.7,6.7,0,0,1-6.7,6.7H140.67a6.7,6.7,0,0,1-6.7-6.7v-.79a6.7,6.7,0,0,1,6.7-6.7Z" transform="translate(310.33 -48.43) rotate(90)" style="fill:#d9d9d9"/><path d="M110.81,36.69h58.8A6.36,6.36,0,0,1,176,43.06v1.66A6.32,6.32,0,0,1,169.65,51h-58a7.17,7.17,0,0,1-7.17-7.17V43a6.32,6.32,0,0,1,6.32-6.32Z" transform="translate(12.97 -29.58) rotate(12.62)" style="fill:#d9d9d9"/><path d="M119.25,39.34V77.08a5.4,5.4,0,0,1-5.4,5.4h-3.41a5.36,5.36,0,0,1-5.37-5.37V35.89a5.94,5.94,0,0,1,5.37-5.36h0A8.8,8.8,0,0,1,119.25,39.34Z" style="fill:#d9d9d9"/><path d="M110.77,76.38h69.88A6.31,6.31,0,0,1,187,82.69v1.77a6.26,6.26,0,0,1-6.26,6.26h-69a7.21,7.21,0,0,1-7.21-7.21v-.87a6.26,6.26,0,0,1,6.26-6.26Z" transform="translate(21.78 -29.82) rotate(12.62)" style="fill:#d9d9d9"/><path d="M153.31,107.7l-78.61-18C69,88.35,64.25,92.1,64.25,98v94.47a9.39,9.39,0,0,0,4.5,7.52l39.38,21.14a9.48,9.48,0,0,0,8.42-.2l39.24-23.47a9.5,9.5,0,0,0,4.15-7.33V116A9,9,0,0,0,153.31,107.7Zm-5.65,73.6a7,7,0,0,1-3.09,5.44l-29.16,17.45a7.07,7.07,0,0,1-6.26.15L79.88,188.63a7,7,0,0,1-3.35-5.6V112.81a6.09,6.09,0,0,1,7.77-6.19L142.73,120a6.66,6.66,0,0,1,4.93,6.18Z" style="fill:#d9d9d9"/><path d="M85.92,129.26c.78,1.8,1.9,4.58,3,8.05,2.73,8.44,1.65,9.3,4,13.88a24.42,24.42,0,0,0,10,10.73l.13.06a23.77,23.77,0,0,0,9.4,2.44c7.06.59,13.57.69,13.58.7S115.74,148.77,101.24,138C96.24,134.24,93.23,131.16,85.92,129.26Z" style="fill:#a3bb6d"/><path d="M85.92,129.26s22.49-4.64,35.3,5.83,4.74,30,4.74,30S108.26,137.6,85.92,129.26Z" style="fill:#84aa42"/><path d="M179.39,172,138.6,196.51a2.49,2.49,0,0,1-3.4-.85l-4.77-7.95a2.44,2.44,0,0,1,.83-3.34l42.91-25.78a2.44,2.44,0,0,1,3.35.83l4,1.31C181.5,164.85,181.7,170.61,179.39,172Z" style="fill:#494949"/><circle cx="169.29" cy="44.1" r="11.8" style="fill:#494949"/><path d="M135.7,115.55H213a6.8,6.8,0,0,1,6.8,6.8V123a6.7,6.7,0,0,1-6.7,6.7H135.7A6.7,6.7,0,0,1,129,123v-.79A6.7,6.7,0,0,1,135.7,115.55Z" transform="translate(297.06 -51.76) rotate(90)" style="fill:#494949"/><path d="M105.84,28.39h58.8A6.36,6.36,0,0,1,171,34.75v1.66a6.32,6.32,0,0,1-6.32,6.32h-58a7.17,7.17,0,0,1-7.17-7.17v-.86a6.32,6.32,0,0,1,6.32-6.32Z" transform="translate(11.04 -28.69) rotate(12.62)" style="fill:#494949"/><path d="M114.29,31V68.77a5.41,5.41,0,0,1-5.41,5.41h-3.41a5.37,5.37,0,0,1-5.37-5.37V27.59a6,6,0,0,1,5.37-5.37h0A8.82,8.82,0,0,1,114.29,31Z" style="fill:#494949"/><path d="M105.8,68.07h69.88A6.31,6.31,0,0,1,182,74.39v1.77a6.26,6.26,0,0,1-6.26,6.26h-69a7.21,7.21,0,0,1-7.21-7.21v-.87a6.26,6.26,0,0,1,6.26-6.26Z" transform="translate(19.84 -28.94) rotate(12.62)" style="fill:#494949"/><path d="M148.34,99.4l-78.61-18C64,80.05,59.28,83.79,59.28,89.69v94.47a9.45,9.45,0,0,0,4.5,7.53l39.38,21.13a9.48,9.48,0,0,0,8.42-.19l39.24-23.47a9.5,9.5,0,0,0,4.16-7.33V107.72A9,9,0,0,0,148.34,99.4ZM142.69,173a7.07,7.07,0,0,1-3.09,5.45l-29.16,17.45a7.07,7.07,0,0,1-6.26.14L74.91,180.32a7,7,0,0,1-3.35-5.59V104.51a6.08,6.08,0,0,1,7.77-6.19l58.43,13.4a6.67,6.67,0,0,1,4.93,6.19Z" style="fill:#494949"/></svg>