<svg xmlns="http://www.w3.org/2000/svg" viewBox="0 0 240 240"><path d="M83.7,137.57c.78,1.8,1.9,4.57,3,8.05,2.72,8.43,1.65,9.3,3.94,13.88a24.44,24.44,0,0,0,10,10.72l.13.07a23.55,23.55,0,0,0,9.4,2.43c7,.59,13.57.7,13.57.7S113.51,157.08,99,146.27C94,142.54,91,139.47,83.7,137.57Z" style="fill:#d9d9d9"/><path d="M83.7,137.57s22.49-4.65,35.3,5.83,4.73,30,4.73,30S106,145.9,83.7,137.57Z" style="fill:#d9d9d9"/><path d="M177.17,180.3l-40.79,24.51A2.48,2.48,0,0,1,133,204L128.21,196a2.44,2.44,0,0,1,.83-3.35L172,166.89a2.45,2.45,0,0,1,3.35.83l4,1.31C179.28,173.16,179.48,178.92,177.17,180.3Z" style="fill:#d9d9d9"/><circle cx="167.06" cy="52.41" r="11.8" style="fill:#d9d9d9"/><path d="M133.48,123.86H210.8a6.8,6.8,0,0,1,6.8,6.8v.69a6.7,6.7,0,0,1-6.7,6.7H133.48a6.7,6.7,0,0,1-6.7-6.7v-.79a6.7,6.7,0,0,1,6.7-6.7Z" transform="translate(303.14 -41.24) rotate(90)" style="fill:#d9d9d9"/><path d="M103.62,36.69h58.8a6.36,6.36,0,0,1,6.36,6.36v1.66A6.32,6.32,0,0,1,162.46,51h-58a7.17,7.17,0,0,1-7.17-7.17V43a6.32,6.32,0,0,1,6.32-6.32Z" transform="translate(12.8 -28.01) rotate(12.62)" style="fill:#d9d9d9"/><path d="M112.06,39.34V77.08a5.4,5.4,0,0,1-5.4,5.4h-3.41a5.36,5.36,0,0,1-5.37-5.37V35.89a5.94,5.94,0,0,1,5.37-5.36h0A8.8,8.8,0,0,1,112.06,39.34Z" style="fill:#d9d9d9"/><path d="M103.58,76.38h69.88a6.31,6.31,0,0,1,6.31,6.31v1.77a6.26,6.26,0,0,1-6.26,6.26h-69a7.21,7.21,0,0,1-7.21-7.21v-.87A6.26,6.26,0,0,1,103.58,76.38Z" transform="translate(21.6 -28.25) rotate(12.62)" style="fill:#d9d9d9"/><path d="M146.12,107.7l-78.61-18C61.76,88.35,57.06,92.1,57.06,98v94.47a9.39,9.39,0,0,0,4.5,7.52l39.38,21.14a9.48,9.48,0,0,0,8.42-.2l39.24-23.47a9.5,9.5,0,0,0,4.15-7.33V116A9,9,0,0,0,146.12,107.7Zm-5.65,73.6a7,7,0,0,1-3.09,5.44l-29.16,17.45a7.07,7.07,0,0,1-6.26.15L72.69,188.63a7,7,0,0,1-3.35-5.6V112.81a6.09,6.09,0,0,1,7.77-6.19L135.54,120a6.66,6.66,0,0,1,4.93,6.18Z" style="fill:#d9d9d9"/><path d="M78.73,129.26c.78,1.8,1.9,4.58,3,8.05,2.73,8.44,1.65,9.3,4,13.88a24.42,24.42,0,0,0,10,10.73l.13.06a23.77,23.77,0,0,0,9.4,2.44c7.06.59,13.57.69,13.58.7S108.55,148.77,94.05,138C89.05,134.24,86,131.16,78.73,129.26Z" style="fill:#ababab"/><path d="M78.73,129.26s22.49-4.64,35.3,5.83,4.74,30,4.74,30S101.08,137.6,78.73,129.26Z" style="fill:#939393"/><path d="M172.2,172l-40.78,24.51a2.5,2.5,0,0,1-3.41-.85l-4.77-7.95a2.44,2.44,0,0,1,.83-3.34L167,158.59a2.44,2.44,0,0,1,3.35.83l4,1.31C174.31,164.85,174.51,170.61,172.2,172Z" style="fill:#494949"/><circle cx="162.1" cy="44.1" r="11.8" style="fill:#494949"/><path d="M128.51,115.55h77.32a6.8,6.8,0,0,1,6.8,6.8V123a6.7,6.7,0,0,1-6.7,6.7H128.51a6.7,6.7,0,0,1-6.7-6.7v-.79A6.7,6.7,0,0,1,128.51,115.55Z" transform="translate(289.87 -44.57) rotate(90)" style="fill:#494949"/><path d="M98.65,28.39h58.8a6.36,6.36,0,0,1,6.36,6.36v1.66a6.32,6.32,0,0,1-6.32,6.32h-58a7.17,7.17,0,0,1-7.17-7.17v-.86a6.32,6.32,0,0,1,6.32-6.32Z" transform="translate(10.86 -27.12) rotate(12.62)" style="fill:#494949"/><path d="M107.1,31V68.77a5.41,5.41,0,0,1-5.41,5.41H98.28a5.37,5.37,0,0,1-5.37-5.37V27.59a6,6,0,0,1,5.37-5.37h0A8.82,8.82,0,0,1,107.1,31Z" style="fill:#494949"/><path d="M98.61,68.07h69.88a6.31,6.31,0,0,1,6.31,6.31v1.77a6.26,6.26,0,0,1-6.26,6.26h-69a7.21,7.21,0,0,1-7.21-7.21v-.87A6.26,6.26,0,0,1,98.61,68.07Z" transform="translate(19.67 -27.37) rotate(12.62)" style="fill:#494949"/><path d="M141.16,99.4l-78.62-18c-5.75-1.32-10.45,2.42-10.45,8.32v94.47a9.45,9.45,0,0,0,4.5,7.53L96,212.82a9.48,9.48,0,0,0,8.42-.19l39.24-23.47a9.5,9.5,0,0,0,4.16-7.33V107.72A9,9,0,0,0,141.16,99.4ZM135.5,173a7.07,7.07,0,0,1-3.09,5.45l-29.16,17.45A7.07,7.07,0,0,1,97,196L67.72,180.32a7,7,0,0,1-3.35-5.59V104.51a6.08,6.08,0,0,1,7.77-6.19l58.43,13.4a6.66,6.66,0,0,1,4.93,6.19Z" style="fill:#494949"/></svg>